<svg width="1152" height="625" viewBox="0 0 1152 625" fill="none" xmlns="http://www.w3.org/2000/svg">
<g clip-path="url(#clip0_3_25)">
<path d="M1148 0H-3V625H1148V0Z" fill="#FAFAFB"/>
<path d="M1152 338.021C1096.96 329.063 1041.79 320.208 1000.19 298.333C958.464 276.458 930.176 241.771 889.472 213.646C848.896 185.417 795.776 163.854 768.256 129.375C740.736 94.8958 738.688 47.3958 736.64 0H1152V338.021Z" fill="#FA7268"/>
<path d="M0 286.979C56.576 292.604 113.024 298.229 155.264 319.896C197.504 341.563 225.408 379.375 265.216 409.167C305.024 439.063 356.736 461.042 383.744 495.625C410.752 530.313 413.056 577.604 415.36 625H0V286.979Z" fill="#FA7268"/>
</g>
<defs>
<clipPath id="clip0_3_25">
<rect width="1152" height="625" fill="white"/>
</clipPath>
</defs>
</svg>
